<svg width="128" height="128" xmlns="http://www.w3.org/2000/svg"><path d="M519.620465 0c-103.924093 0-188.511256 82.467721-192.083349 185.820279H85.015814A48.91386 48.91386 0 0 0 36.101953 234.686512a48.91386 48.91386 0 0 0 48.913861 48.866232h54.010046V831.345116c0 102.852465 69.822512 186.844279 155.909954 186.844279h439.200744c86.087442 0 155.909953-83.491721 155.909954-186.844279V284.100465h48.91386a48.91386 48.91386 0 0 0 48.913861-48.890046 48.91386 48.91386 0 0 0-48.913861-48.866233h-227.756651A191.559442 191.559442 0 0 0 519.620465 0z m-107.234232 177.080558c3.548279-49.771163 46.627721-88.540279 99.851907-88.540279 53.224186 0 96.327442 38.745302 99.351813 88.540279h-199.20372z m-111.997024 752.044651c-30.981953 0-65.083535-39.15014-65.083535-95.041488V287.744h575.488v546.839814c0 55.915163-34.077767 95.041488-65.059721 95.041488H300.389209v-0.500093z" fill="#D81E06" p-id="3295"></path></svg>